# xmcd
#
# Track frame offsets: 
#        150
#        20542
#        35632
#        52637
#
# Disc length: 1006 seconds
#
# Revision: 0
# Processed by: cddbd v1.5.2PL0 Copyright (c) Steve Scherf et al.
# Submitted via: ExactAudioCopy v0.99pb3
#
DISCID=2603ec04
DTITLE=Lo-Tel - Teenager Of The Year
DYEAR=2000
DGENRE=Murmur
TTITLE0=Teenager Of The Year
TTITLE1=Genre Casting
TTITLE2=Lessons In Spanish
TTITLE3=VIDEO
EXTD=
EXTT0=
EXTT1=
EXTT2=
EXTT3=
PLAYORDER=
